<svg width="14" height="14" viewBox="0 0 14 14" fill="none" xmlns="http://www.w3.org/2000/svg">
<g clip-path="url(#clip0_8162_399)">
<path d="M12.8613 6.66681V7.23031C12.8606 8.55112 12.4329 9.8363 11.642 10.8942C10.8512 11.9521 9.73959 12.726 8.47298 13.1004C7.20638 13.4749 5.85265 13.43 4.61369 12.9722C3.37473 12.5145 2.31693 11.6685 1.59804 10.5605C0.879154 9.45248 0.5377 8.14175 0.624605 6.8238C0.71151 5.50586 1.22212 4.25131 2.08027 3.24727C2.93843 2.24323 4.09816 1.54348 5.38649 1.2524C6.67483 0.96132 8.02274 1.09449 9.2292 1.63206" stroke="white" stroke-linecap="round" stroke-linejoin="round"/>
<path d="M12.8613 1.97681L6.80364 8.97681L4.98633 6.8789" stroke="white" stroke-linecap="round" stroke-linejoin="round"/>
</g>
<defs>
<clipPath id="clip0_8162_399">
<rect width="14" height="14" fill="white"/>
</clipPath>
</defs>
</svg>
