<?xml version="1.0" standalone="no"?>
<svg version="1.0" xmlns="http://www.w3.org/2000/svg"
 width="128.000000pt" height="128.000000pt" viewBox="0 0 128.000000 128.000000"
 preserveAspectRatio="xMidYMid meet">

<g transform="translate(0.000000,128.000000) scale(0.100000,-0.100000)"
fill="#ffffff" stroke="none">
<path d="M501 1265 c-178 -39 -348 -172 -429 -336 -127 -256 -81 -540 118
-739 251 -252 649 -252 900 0 252 251 252 649 0 900 -155 156 -375 221 -589
175z m281 -322 c34 -31 21 -53 -104 -180 l-122 -123 122 -123 c67 -68 122
-132 122 -142 0 -25 -29 -55 -53 -55 -13 0 -76 55 -169 147 -115 114 -148 153
-148 173 0 20 33 59 148 173 84 83 157 147 167 147 10 0 27 -7 37 -17z"/>
</g>
</svg>
