<?xml version="1.0" standalone="no"?>
<svg version="1.0" xmlns="http://www.w3.org/2000/svg"
 width="128.000000pt" height="128.000000pt" viewBox="0 0 128.000000 128.000000"
 preserveAspectRatio="xMidYMid meet">

<g transform="translate(0.000000,128.000000) scale(0.100000,-0.100000)"
fill="#ffffff" stroke="none">
<path d="M131 1273 c-13 -3 -45 -26 -72 -53 -37 -37 -49 -57 -54 -91 -3 -24
-5 -260 -3 -525 l3 -481 27 -36 c16 -19 43 -46 60 -59 32 -23 38 -23 273 -23
l240 0 0 225 0 225 -72 3 -73 3 0 69 0 69 73 3 72 3 5 125 c4 90 10 133 21
155 41 74 94 95 239 95 l110 0 0 -75 0 -75 -80 0 c-43 0 -91 -5 -105 -12 -32
-14 -47 -67 -43 -151 l3 -62 108 -3 c59 -1 107 -6 107 -9 0 -4 -5 -35 -11 -69
l-11 -63 -96 -3 -97 -3 -3 -228 -2 -228 203 3 204 3 36 27 c19 16 46 43 59 60
l23 33 0 515 0 515 -23 33 c-13 17 -40 44 -59 60 l-36 27 -501 1 c-276 1 -512
0 -525 -3z m1038 -104 l31 -31 0 -498 0 -498 -31 -31 -31 -31 -154 0 -154 0 0
150 0 150 90 0 c85 0 90 1 95 22 6 27 45 262 45 272 0 3 -52 6 -115 6 l-115 0
0 35 0 34 113 3 112 3 0 150 0 150 -161 -1 c-179 -1 -216 -11 -283 -76 -56
-55 -74 -102 -79 -205 l-4 -93 -74 0 -74 0 0 -150 0 -150 75 0 75 0 0 -150 0
-150 -194 0 -194 0 -31 31 -31 31 0 498 0 498 31 31 31 31 498 0 498 0 31 -31z"/>
</g>
</svg>
