<?xml version="1.0" standalone="no"?>
<svg version="1.0" xmlns="http://www.w3.org/2000/svg"
 width="128.000000pt" height="128.000000pt" viewBox="0 0 128.000000 128.000000"
 preserveAspectRatio="xMidYMid meet">

<g transform="translate(0.000000,128.000000) scale(0.100000,-0.100000)"
fill="#ffffff" stroke="none">
<path d="M1136 1158 c-16 -6 -270 -102 -565 -214 -539 -204 -571 -219 -571
-265 0 -34 34 -55 167 -103 l131 -48 72 -165 c67 -151 76 -167 107 -179 48
-20 77 -9 148 58 l64 59 140 -95 c144 -98 176 -110 222 -86 10 6 25 23 33 38
22 43 199 918 192 947 -15 58 -69 79 -140 53z m64 -85 c-1 -47 -176 -873 -187
-884 -8 -8 -71 30 -232 141 -122 83 -219 156 -216 161 3 5 92 88 198 185 106
97 196 184 201 195 10 20 -7 49 -29 49 -7 0 -147 -72 -311 -160 l-299 -161
-100 36 c-55 20 -106 39 -112 43 -8 5 120 58 325 135 185 70 429 163 542 207
113 43 208 79 213 79 4 1 7 -11 7 -26z m-633 -476 l-107 -102 -3 -65 -2 -65
-33 69 c-54 115 -62 101 100 188 79 42 145 77 148 77 3 0 -43 -45 -103 -102z
m51 -256 c-2 -4 -22 -24 -45 -45 l-43 -38 0 76 0 77 46 -31 c25 -18 44 -35 42
-39z"/>
</g>
</svg>
