<?xml version="1.0" standalone="no"?>
<svg version="1.0" xmlns="http://www.w3.org/2000/svg"
 width="128.000000pt" height="128.000000pt" viewBox="0 0 128.000000 128.000000"
 preserveAspectRatio="xMidYMid meet">

<g transform="translate(0.000000,128.000000) scale(0.100000,-0.100000)"
fill="#ffffff" stroke="none">
<path d="M535 1266 c-140 -33 -240 -90 -334 -192 -160 -175 -206 -438 -113
-654 l19 -45 -55 -158 c-46 -133 -53 -162 -44 -182 19 -42 47 -39 212 18 l155
54 45 -19 c161 -69 353 -62 519 19 106 52 222 168 274 274 50 103 70 201 64
310 -20 324 -269 571 -592 585 -55 2 -113 -2 -150 -10z m264 -81 c96 -25 162
-65 242 -144 122 -122 166 -238 157 -418 -8 -148 -59 -257 -170 -363 -140
-133 -357 -180 -538 -115 -116 41 -121 41 -264 -10 -71 -25 -131 -44 -133 -42
-2 2 17 62 42 133 51 143 51 148 10 264 -47 131 -36 291 30 420 64 126 202
238 338 275 68 18 218 19 286 0z"/>
<path d="M380 935 c-54 -55 -55 -57 -55 -113 0 -47 7 -73 39 -138 32 -64 59
-98 140 -180 117 -116 215 -174 311 -182 l54 -4 60 57 c52 49 61 63 61 93 0
30 -9 45 -58 94 -49 48 -64 58 -94 58 -24 0 -42 -8 -57 -24 -22 -24 -25 -24
-50 -9 -39 25 -119 104 -141 140 -18 31 -18 31 6 54 16 15 24 33 24 57 0 30
-10 45 -58 94 -80 79 -106 80 -182 3z m139 -132 c-33 -39 -32 -52 9 -117 47
-75 157 -170 219 -190 16 -5 30 1 56 23 l34 30 42 -43 42 -43 -41 -37 c-47
-43 -67 -43 -155 -1 -142 68 -305 257 -330 382 -5 27 -1 38 31 73 l37 41 43
-42 43 -42 -30 -34z"/>
</g>
</svg>
