<svg width="18" height="17" viewBox="0 0 18 17" fill="none" xmlns="http://www.w3.org/2000/svg">
<g clip-path="url(#clip0_18_300)">
<path d="M15.3552 7.09004V6.59004C15.3646 5.09936 14.7834 3.66561 13.7387 2.60219C12.694 1.53877 11.2708 0.93219 9.78023 0.915039H9.72523C8.43627 0.918753 7.18746 1.36387 6.18674 2.17627C5.18602 2.98868 4.49376 4.11935 4.22523 5.38004C3.23465 5.38004 2.28464 5.77355 1.58419 6.474C0.883742 7.17444 0.490234 8.12446 0.490234 9.11504C0.490234 10.1056 0.883742 11.0556 1.58419 11.7561C2.28464 12.4565 3.23465 12.85 4.22523 12.85H14.5652C15.2788 12.8578 15.9706 12.6048 16.5109 12.1387C17.0512 11.6726 17.4028 11.0253 17.4998 10.3183C17.5967 9.61139 17.4324 8.89334 17.0375 8.29896C16.6427 7.70458 16.0445 7.27472 15.3552 7.09004Z" fill="#0085FF"/>
<path d="M14.79 15.0899H9.42504V13.8899H8.42504V15.0899H3.04004C2.90743 15.0899 2.78025 15.1426 2.68649 15.2363C2.59272 15.3301 2.54004 15.4573 2.54004 15.5899C2.54004 15.7225 2.59272 15.8497 2.68649 15.9434C2.78025 16.0372 2.90743 16.0899 3.04004 16.0899H14.79C14.9226 16.0899 15.0498 16.0372 15.1436 15.9434C15.2374 15.8497 15.29 15.7225 15.29 15.5899C15.29 15.4573 15.2374 15.3301 15.1436 15.2363C15.0498 15.1426 14.9226 15.0899 14.79 15.0899Z" fill="#0085FF"/>
</g>
<defs>
<clipPath id="clip0_18_300">
<rect width="18" height="16" fill="white" transform="translate(0 0.5)"/>
</clipPath>
</defs>
</svg>
