<svg width="20" height="19" viewBox="0 0 20 19" fill="none" xmlns="http://www.w3.org/2000/svg">
<path d="M19.7218 3.875H16.8746C16.5273 2.25781 15.1385 1.0625 13.4718 1.0625C11.8051 1.0625 10.4162 2.25781 10.069 3.875H0.277344V5.28125H10.069C10.4162 6.89844 11.8051 8.09375 13.4718 8.09375C15.1385 8.09375 16.5273 6.89844 16.8746 5.28125H19.7218V3.875ZM13.4718 6.6875C12.2912 6.6875 11.3885 5.77344 11.3885 4.57812C11.3885 3.38281 12.2912 2.46875 13.4718 2.46875C14.6523 2.46875 15.5551 3.38281 15.5551 4.57812C15.5551 5.77344 14.6523 6.6875 13.4718 6.6875Z" fill="#787878"/>
<path d="M0.277344 15.125H3.12457C3.47179 16.7422 4.86068 17.9375 6.52734 17.9375C8.19401 17.9375 9.5829 16.7422 9.93012 15.125H19.7218V13.7188H9.93012C9.5829 12.1016 8.19401 10.9062 6.52734 10.9062C4.86068 10.9062 3.47179 12.1016 3.12457 13.7188H0.277344V15.125ZM6.52734 12.3125C7.7079 12.3125 8.61068 13.2266 8.61068 14.4219C8.61068 15.6172 7.7079 16.5312 6.52734 16.5312C5.34679 16.5312 4.44401 15.6172 4.44401 14.4219C4.44401 13.2266 5.34679 12.3125 6.52734 12.3125Z" fill="#787878"/>
</svg>
