<?xml version="1.0" standalone="no"?>
<svg version="1.0" xmlns="http://www.w3.org/2000/svg"
 width="128.000000pt" height="128.000000pt" viewBox="0 0 128.000000 128.000000"
 preserveAspectRatio="xMidYMid meet">

<g transform="translate(0.000000,128.000000) scale(0.100000,-0.100000)"
fill="#ffffff" stroke="none">
<path d="M1118 1158 c-78 -38 -85 -40 -126 -29 -109 28 -211 4 -285 -67 -57
-55 -97 -145 -97 -219 0 -41 -14 -42 -116 -8 -123 41 -209 107 -291 222 -56
79 -82 84 -114 22 -28 -55 -34 -132 -16 -192 l15 -48 -32 6 c-49 10 -62 -12
-46 -73 8 -26 24 -63 36 -83 24 -39 110 -119 128 -119 6 -1 -4 -7 -22 -15 -46
-20 -50 -40 -16 -76 37 -39 101 -77 177 -104 l59 -22 -33 -20 c-53 -32 -99
-43 -206 -51 -93 -7 -98 -8 -101 -30 -5 -34 21 -57 103 -91 123 -52 242 -73
395 -73 234 1 372 53 502 191 134 141 188 279 188 480 0 117 1 121 32 171 39
63 32 83 -31 88 -22 2 -41 5 -41 8 0 2 14 32 30 65 31 60 32 92 5 102 -7 3
-51 -12 -97 -35z m-128 -113 c28 -15 34 -14 75 4 25 11 45 18 45 16 0 -3 -10
-25 -22 -49 -27 -56 -15 -76 44 -76 37 0 39 -2 27 -17 -10 -12 -14 -53 -15
-152 -1 -156 -17 -221 -81 -329 -119 -200 -310 -293 -578 -279 -114 6 -255 32
-255 48 0 5 9 9 20 9 65 0 224 99 236 147 9 33 0 40 -88 62 -42 11 -98 31
-124 44 l-48 24 41 21 c64 33 61 78 -7 97 -57 16 -160 101 -160 133 0 4 18 8
40 9 22 1 45 5 50 8 17 11 11 44 -17 86 -18 27 -28 58 -31 96 l-5 55 74 -74
c75 -75 156 -130 239 -160 62 -23 158 -40 200 -36 l35 3 6 85 c7 107 30 160
92 209 52 41 144 48 207 16z"/>
</g>
</svg>
